<svg width="600" height="600" viewBox="0 0 600 600" fill="none" xmlns="http://www.w3.org/2000/svg">
  <g stroke="#ffffff" stroke-width="3" opacity="0.12" stroke-linecap="round" stroke-linejoin="round">
    <!-- Flowers -->
    <path d="M300 150c18 0 36-18 36-36s-18-36-36-36-36 18-36 36 18 36 36 36z"/>
    <path d="M235 200c16 0 32-16 32-32s-16-32-32-32-32 16-32 32 16 32 32 32z"/>
    <path d="M365 200c16 0 32-16 32-32s-16-32-32-32-32 16-32 32 16 32 32 32z"/>

    <!-- Petals -->
    <path d="M300 110c-10 18-28 28-48 28"/>
    <path d="M300 110c10 18 28 28 48 28"/>
    <path d="M235 168c-14 12-30 16-48 12"/>
    <path d="M365 168c14 12 30 16 48 12"/>

    <!-- Stems -->
    <path d="M300 170c-18 70-35 120-20 190"/>
    <path d="M300 170c18 70 35 120 20 190"/>
    <path d="M235 210c10 55 30 110 55 150"/>
    <path d="M365 210c-10 55-30 110-55 150"/>

    <!-- Leaves -->
    <path d="M265 360c-40 10-70 40-80 80 40 10 85-10 110-45"/>
    <path d="M335 360c40 10 70 40 80 80-40 10-85-10-110-45"/>

    <!-- Ribbon -->
    <path d="M280 420c-10 30-35 50-60 55 20-25 28-48 30-70"/>
    <path d="M320 420c10 30 35 50 60 55-20-25-28-48-30-70"/>
    <path d="M300 420c-8 14-18 22-30 26 12-20 18-36 20-52"/>
    <path d="M300 420c8 14 18 22 30 26-12-20-18-36-20-52"/>
  </g>
</svg>
